<?xml version="1.0" standalone="no"?>
<!DOCTYPE svg PUBLIC "-//W3C//DTD SVG 20010904//EN"
 "http://www.w3.org/TR/2001/REC-SVG-20010904/DTD/svg10.dtd">
<svg version="1.0" xmlns="http://www.w3.org/2000/svg"
 width="512.000000pt" height="512.000000pt" viewBox="0 0 512.000000 512.000000"
 preserveAspectRatio="xMidYMid meet">
<metadata>
Created by potrace 1.14, written by Peter Selinger 2001-2017
</metadata>
<g transform="translate(0.000000,512.000000) scale(0.100000,-0.100000)"
fill="#000000" stroke="none">
<path d="M860 3528 c-1 -106 -44 -778 -55 -841 -33 -208 -98 -394 -176 -502
l-32 -45 -69 0 -68 0 0 -280 0 -280 125 0 125 0 0 190 0 190 540 0 540 0 0
-190 0 -190 125 0 125 0 0 280 0 280 -100 0 -100 0 0 695 0 695 -490 0 c-269
0 -490 -1 -490 -2z m730 -778 l0 -610 -356 0 c-196 0 -354 3 -352 8 2 4 20 40
41 80 112 217 149 426 173 975 l7 157 243 0 244 0 0 -610z"/>
<path d="M3349 3503 c-5 -16 -139 -365 -296 -777 -228 -597 -283 -750 -272
-757 19 -12 206 -11 227 0 11 6 44 84 87 205 l70 196 309 -2 308 -3 70 -190
c38 -104 76 -196 85 -202 19 -15 210 -18 231 -4 10 6 -55 186 -284 784 l-297
777 -114 0 -113 0 -11 -27z m241 -608 c62 -170 115 -318 118 -327 4 -17 -12
-18 -235 -18 l-240 0 84 233 c129 358 155 428 158 425 1 -2 53 -142 115 -313z"/>
<path d="M4397 3193 c2 -186 6 -438 9 -560 l6 -223 108 0 108 0 6 203 c3 111
7 363 10 560 l4 357 -126 0 -127 0 2 -337z"/>
<path d="M2313 2170 c-63 -38 -65 -145 -3 -192 58 -43 183 -30 222 23 38 51
21 141 -31 172 -42 24 -146 23 -188 -3z"/>
<path d="M4445 2168 c-57 -31 -75 -120 -34 -171 39 -51 158 -59 213 -16 14 11
31 37 37 59 10 32 9 44 -7 76 -11 22 -30 44 -44 51 -31 16 -138 16 -165 1z"/>
</g>
</svg>
